@startuml Diagram for CreationScreen
!define POSITIVERESPONSE 90EE90
!define NEGATIVEERESPONSE EFBBBB
!define NUETRALRESPONSE F2DC79

skinparam sequence{
    ParticipantBackgroundColor #A7BEAE
    LifeLineBackgroundColor #E7E8D1
    LifeLineBorderColor #2C5F2D
    ActorBackgroundColor #FC766AFF
    ActorBorderColor #FC766AFF
    ArrowColor #B85042
    ArrowFontColor #234E70

}
package Pages{
    package CreationScreen{
        class CreationScreenModel{
            + newsService : INewsService
            + @isLoading : bool
            + @statuscode : int
            + @title : String
            + @description : String
            + @date : DateTime
            + @category : Category

        }
        class CreationScreenVM{
            + createNews() : Future<void>
            + onTitleChanged(title : String) : void
            + onDescriptionChanged(description : String) : void
            + onDateChanged(date : DateTime) : void
            + onCategoryChanged(category : Category) : void
            + navigateToResponseScreen() : void
            + navigateToHomeScreen() : void
        }
        class CreationScreen{
            - _creationScreenVM : CreationScreenVM
            + initState() : void
            + dispose() : void

        }
    }
}
package Services{
    package NewsService{
        Interface INewsService{
            + createNews(newsDetails: NewsBO) : Future<ServiceResult<bool>>
        }
    }
}
package BOs{
    package NewsBO{
        class NewsBO{
        }
    }
}
package Helpers{
    package AppConstants{
        enum Category{  
            All
            Politics
            Sports
            Busniess
            Technology
        }
    }
}


CreationScreen-->CreationScreenVM:uses
CreationScreenVM-->CreationScreenModel:extends
CreationScreenVM-->NewsBO
CreationScreenVM-->INewsService
CreationScreenVM-->Category


@enduml