@startuml Diagram for the Response
!define POSITIVERESPONSE 90EE90
!define NEGATIVEERESPONSE EFBBBB
!define NUETRALRESPONSE F2DC79

skinparam sequence{
    ParticipantBackgroundColor #A7BEAE
    LifeLineBackgroundColor #E7E8D1
    LifeLineBorderColor #2C5F2D
    ActorBackgroundColor #FC766AFF
    ActorBorderColor #FC766AFF
    ArrowColor #B85042
    ArrowFontColor #234E70

}
package Pages{
    package RetriveFailScreen{
        class RetriveFailScreen{
            - _retriveScreenVM : RetriveFailScreenVM
            + initState() : void
            + dispose() : void
        }
        class RetriveFailScreenVM{
            + Constructor() : void

        }
        class RetriveFailScreenModel{
            + @statuscode : int
            + @title : String
        }
    }
}

RetriveFailScreen-->RetriveFailScreenVM:uses
RetriveFailScreenVM-->RetriveFailScreenModel:extends



@enduml