@startuml Daigram of the BO
!define POSITIVERESPONSE 90EE90
!define NEGATIVEERESPONSE EFBBBB
!define NUETRALRESPONSE F2DC79

skinparam sequence{
    ParticipantBackgroundColor #A7BEAE
    LifeLineBackgroundColor #E7E8D1
    LifeLineBorderColor #2C5F2D
    ActorBackgroundColor #FC766AFF
    ActorBorderColor #FC766AFF
    ArrowColor #B85042
    ArrowFontColor #234E70

}
package BOs{
    package NewsBO{
        class NewsBO{
            + id : int
            + title : String
            + description : String
            + date : DateTime
            + category : Category   
        }
        class NewsBOExtension{
            + filterBasedOnCategory() : List<NewsBO>
        }
    }
}
package Helpers{
    package AppConstants{
        enum Category{  
        }
    }
}

package Services{
    package NewsService{
        interface INewsService{
            + getNews() : Future<ServiceResult<List<NewsBO>>>
            + createNews(newsDetails:NewsBO) :  Future<ServiceResult<bool>>
        }
    }
}

package Pages{
    package HomeScreen{
        class HomeScreenVM{
            + filterNews(category: Category) : void
        }
    }
}


NewsBOExtension-->NewsBO
NewsBO<--INewsService
NewsBO<--HomeScreenVM
Category-->NewsBO


newpage 
skinparam sequence{
    ParticipantBackgroundColor #A7BEAE
    LifeLineBackgroundColor #E7E8D1
    LifeLineBorderColor #2C5F2D
    ActorBackgroundColor #FC766AFF
    ActorBorderColor #FC766AFF
    ArrowColor #B85042
    ArrowFontColor #234E70

}
package BOs{
    package NewsBO{
        class NewsBOExtension{
            + filterBasedOnCategory() : List<NewsBO>
        }
    }
}

package Helpers{
    package AppConstants{
        enum Category{  
        }
    }
}


NewsBOExtension-->Category


newpage 
skinparam sequence{
    ParticipantBackgroundColor #A7BEAE
    LifeLineBackgroundColor #E7E8D1
    LifeLineBorderColor #2C5F2D
    ActorBackgroundColor #FC766AFF
    ActorBorderColor #FC766AFF
    ArrowColor #B85042
    ArrowFontColor #234E70

}
package Pages{
    package HomeScreen{
        class HomeScreenVM{
            + filterNews(newsDetails:NewsBO) : void
        }
    }
}
package BOs{
    package NewsBO{
        class NewsBOExtension{
            + filterBasedOnCategory() : List<NewsBO>
        }
    }
}

HomeScreenVM-->NewsBOExtension
@enduml