@startuml Daigram of the Services
!define POSITIVERESPONSE 90EE90
!define NEGATIVEERESPONSE EFBBBB
!define NUETRALRESPONSE F2DC79

skinparam sequence{
    ParticipantBackgroundColor #A7BEAE
    LifeLineBackgroundColor #E7E8D1
    LifeLineBorderColor #2C5F2D
    ActorBackgroundColor #FC766AFF
    ActorBorderColor #FC766AFF
    ArrowColor #B85042
    ArrowFontColor #234E70

}
package Services{
    package NewsService{
        Interface INewsService{
            + getNews() : Future<ServiceResult<List<NewsBO>>>
            + createNews(NewsBO newsDetails) : Future<ServiceResult<bool>>
        }
    }
}
package BOs{
    package NewsBO{
        class NewsBO{
        }
    }
}

INewsService-->NewsBO


newpage
skinparam sequence{
    ParticipantBackgroundColor #A7BEAE
    LifeLineBackgroundColor #E7E8D1
    LifeLineBorderColor #2C5F2D
    ActorBackgroundColor #FC766AFF
    ActorBorderColor #FC766AFF
    ArrowColor #B85042
    ArrowFontColor #234E70

}
package Services{
    package NewsService{
        interface INewsService{
            + getNews() : Future<ServiceResult<List<NewsBO>>>
        }
    }
}

package Pages{
    package HomeScreen{
        class HomeScreenVM{
            + fetchAllNews():Future<void>
        }
    }
}

INewsService<--HomeScreenVM

newpage
skinparam sequence{
    ParticipantBackgroundColor #A7BEAE
    LifeLineBackgroundColor #E7E8D1
    LifeLineBorderColor #2C5F2D
    ActorBackgroundColor #FC766AFF
    ActorBorderColor #FC766AFF
    ArrowColor #B85042
    ArrowFontColor #234E70

}
package Services{
    package NewsService{
        interface INewsService{
            + createNews(NewsBO newsDetails) :  Future<ServiceResult<bool>>
        }
    }
}

package Pages{
    package HomeScreen{
        class HomeScreenVM{
            + createNewsDetails() : Future<void>
        }
    }
}
INewsService<--HomeScreenVM