@startuml Diagram for AppConstant
!define POSITIVERESPONSE 90EE90
!define NEGATIVEERESPONSE EFBBBB
!define NUETRALRESPONSE F2DC79

skinparam sequence{
    ParticipantBackgroundColor #A7BEAE
    LifeLineBackgroundColor #E7E8D1
    LifeLineBorderColor #2C5F2D
    ActorBackgroundColor #FC766AFF
    ActorBorderColor #FC766AFF
    ArrowColor #B85042
    ArrowFontColor #234E70

}
package Helpers{
    package AppConstants{
        enum Category{ 
            All 
            Politics
            Sports
            Busniess
            Technology
        }
    }
}
package BOs{
    package NewsBO{
        class NewsBO{
            + id : int
            + title : String
            + description : String
            + date : DateTime
            + category : Category   
        }
       
    }
}
package BOs{
    package NewsBO{
         class NewsBOExtension{
         + filterBasedOnCategory() : List<NewsBO>
        }
    }
}
NewsBO-->Category
NewsBOExtension-->Category
NewsBOExtension-->NewsBO

newpage 
skinparam sequence{
    ParticipantBackgroundColor #A7BEAE
    LifeLineBackgroundColor #E7E8D1
    LifeLineBorderColor #2C5F2D
    ActorBackgroundColor #FC766AFF
    ActorBorderColor #FC766AFF
    ArrowColor #B85042
    ArrowFontColor #234E70

}
package Pages{
    package HomeScreen{
        class HomeScreenVM{
            + filterNews(category: Category) : void
        }
    }
}
package Helpers{
    package AppConstants{
        enum Category{  
            All
            Politics
            Sports
            Busniess
            Technology
        }
    }
}

HomeScreenVM-->Category


@enduml